# xmcd CD database file
#
# Track frame offsets:
#	150
#	6085
#	20282
#	24245
#	28770
#	44537
#	49567
#	53750
#	57955
#	64789
#	78782
#	90145
#	94057
#	101117
#	109227
#	116637
#	124167
#	131205
#	138722
#	146100
#	154055
#	162177
#	172152
#	182132
#	191075
#	193122
#	201915
#	208852
#	216965
#	228210
#	234717
#	242365
#	249540
#	251382
#	258395
#	265027
#	271355
#	278075
#	285237
#	292155
#
# Disc length: 3982 seconds
#
# Revision: 1
# Processed by: cddbd v1.5.2PL0 Copyright (c) Steve Scherf et al.
# Submitted via: CDex 1.70beta3
#
DISCID=4d0f8c28
DTITLE=ﾃ｢pﾃ･ﾃ催・・ﾃｯbﾃ・ﾃｲbﾃ・pi> - SONY
DYEAR=1900
DGENRE=Blues
TTITLE0=1
TTITLE1=2
TTITLE2=3
TTITLE3=4
TTITLE4=5
TTITLE5=6
TTITLE6=7
TTITLE7=8
TTITLE8=9
TTITLE9=10
TTITLE10=11
TTITLE11=12
TTITLE12=13
TTITLE13=14
TTITLE14=15
TTITLE15=16
TTITLE16=17
TTITLE17=18
TTITLE18=19
TTITLE19=20
TTITLE20=21
TTITLE21=22
TTITLE22=23
TTITLE23=24
TTITLE24=25
TTITLE25=26
TTITLE26=27
TTITLE27=28
TTITLE28=29
TTITLE29=30
TTITLE30=31
TTITLE31=32
TTITLE32=33
TTITLE33=34
TTITLE34=35
TTITLE35=36
TTITLE36=37
TTITLE37=38
TTITLE38=39
TTITLE39=40
EXTD=
EXTT0=
EXTT1=
EXTT2=
EXTT3=
EXTT4=
EXTT5=
EXTT6=
EXTT7=
EXTT8=
EXTT9=
EXTT10=
EXTT11=
EXTT12=
EXTT13=
EXTT14=
EXTT15=
EXTT16=
EXTT17=
EXTT18=
EXTT19=
EXTT20=
EXTT21=
EXTT22=
EXTT23=
EXTT24=
EXTT25=
EXTT26=
EXTT27=
EXTT28=
EXTT29=
EXTT30=
EXTT31=
EXTT32=
EXTT33=
EXTT34=
EXTT35=
EXTT36=
EXTT37=
EXTT38=
EXTT39=
PLAYORDER=
